<svg width="100" height="100" viewBox="0 0 100 100" fill="none" xmlns="http://www.w3.org/2000/svg">
<g clip-path="url(#clip0_17_2)">
<circle cx="50" cy="50" r="50" fill="#D9D9D9"/>
<path d="M71.3568 39.0932L58.5045 39.8841C58.2848 38.7856 57.8125 37.797 57.0875 36.9182C56.3625 36.0174 55.4068 35.3034 54.2205 34.7761C53.0561 34.2269 51.661 33.9523 50.0352 33.9523C47.8602 33.9523 46.0258 34.4136 44.5318 35.3364C43.0379 36.2371 42.2909 37.4455 42.2909 38.9614C42.2909 40.1697 42.7742 41.1913 43.7409 42.0261C44.7076 42.861 46.3663 43.5311 48.717 44.0364L57.8784 45.8818C62.7996 46.8924 66.4686 48.5182 68.8852 50.7591C71.3019 53 72.5102 55.9439 72.5102 59.5909C72.5102 62.9083 71.5326 65.8193 69.5773 68.3239C67.6439 70.8284 64.9856 72.7837 61.6023 74.1898C58.2409 75.5739 54.3633 76.2659 49.9693 76.2659C43.2686 76.2659 37.9299 74.8708 33.9534 72.0807C29.9989 69.2686 27.6811 65.4458 27 60.6125L40.808 59.8875C41.2254 61.9307 42.236 63.4905 43.8398 64.567C45.4436 65.6216 47.4977 66.1489 50.0023 66.1489C52.4629 66.1489 54.4401 65.6765 55.9341 64.7318C57.45 63.7651 58.2189 62.5239 58.2409 61.008C58.2189 59.7337 57.6807 58.6901 56.6261 57.8773C55.5716 57.0424 53.9458 56.4053 51.7489 55.9659L42.983 54.2193C38.0398 53.2307 34.3598 51.517 31.9432 49.0784C29.5485 46.6398 28.3511 43.5311 28.3511 39.7523C28.3511 36.5008 29.2299 33.6996 30.9875 31.3489C32.767 28.9981 35.2606 27.1856 38.4682 25.9114C41.6977 24.6371 45.4765 24 49.8045 24C56.1977 24 61.2288 25.3511 64.8977 28.0534C68.5886 30.7557 70.7417 34.4356 71.3568 39.0932Z" fill="#1447E6"/>
</g>
<defs>
<clipPath id="clip0_17_2">
<rect width="100" height="100" fill="white"/>
</clipPath>
</defs>
</svg>
