<svg xmlns="http://www.w3.org/2000/svg" fill="none" viewBox="0 0 100 100">
  <g clip-path="url(#a)">
    <circle cx="50" cy="50" r="50" fill="#D9D9D9"/>
    <path fill="#1447E6" d="m71.4 39-12.9.9c-.2-1.1-.7-2.1-1.4-3a7.5 7.5 0 0 0-2.9-2.1A9.7 9.7 0 0 0 50 34c-2.1 0-4 .4-5.5 1.3-1.5 1-2.2 2.1-2.2 3.7 0 1.2.5 2.2 1.4 3 1 .9 2.7 1.5 5 2L58 46c4.9 1 8.6 2.6 11 4.9 2.4 2.2 3.6 5.1 3.6 8.8 0 3.3-1 6.2-3 8.7a19 19 0 0 1-7.9 5.9c-3.4 1.4-7.2 2-11.6 2-6.7 0-12-1.3-16-4.1s-6.3-6.7-7-11.5l13.8-.7a7 7 0 0 0 3 4.7A11 11 0 0 0 50 66a11 11 0 0 0 6-1.4c1.5-1 2.2-2.2 2.2-3.7 0-1.3-.5-2.3-1.6-3.1-1-.9-2.7-1.5-4.9-2L43 54.3a21 21 0 0 1-11-5.1 12.8 12.8 0 0 1-3.6-9.3c0-3.3.8-6.1 2.6-8.5a17 17 0 0 1 7.5-5.4c3.2-1.3 7-1.9 11.3-1.9a25 25 0 0 1 15.1 4c3.7 2.8 5.8 6.4 6.5 11Z"/>
  </g>
  <defs>
    <clipPath id="a">
      <path fill="#fff" d="M0 0h100v100H0z"/>
    </clipPath>
  </defs>
</svg>